C:\Users\israe\Dropbox\PhDWork\ExperimentalData\subject14\055\P14S055W04_filtered35.mot
nRows=20
nColumns=28

name C:\Users\israe\Dropbox\PhDWork\ExperimentalData\subject14\055\P14S055W04_filtered35.mot
datacolumns 28
datarows 20
range 1.5850000000 1.6040000000
endheader
time	ground_force_1_vx	ground_force_1_vy	ground_force_1_vz	ground_force_1_px	ground_force_1_py	ground_force_1_pz	ground_moment_1_mx	ground_moment_1_my	ground_moment_1_mz	ground_force_2_vx	ground_force_2_vy	ground_force_2_vz	ground_force_2_px	ground_force_2_py	ground_force_2_pz	ground_moment_2_mx	ground_moment_2_my	ground_moment_2_mz	ground_force_3_vx	ground_force_3_vy	ground_force_3_vz	ground_force_3_px	ground_force_3_py	ground_force_3_pz	ground_moment_3_mx	ground_moment_3_my	ground_moment_3_mz
        1.5850000000	       -0.0000000000	        0.0000000000	       -0.0000000000	        0.1988394955	        0.0000558755	       -0.3004071329	       -0.0000000000	       -0.0000000000	       -0.0000000000	      -20.6020950738	      584.3620759090	       78.4822191686	        0.2029003516	       -0.0000795827	        0.4543649445	      -87.2273376070	      -15.4234696834	       76.2276929182	        0.0002227259	        0.0013980248	        0.0000624351	        0.2076431971	        0.0000770316	        1.3583900146	        0.0001781025	        0.0000512765	        0.0000364642	
        1.5860000000	       -0.0000000000	        0.0000000000	       -0.0000000000	        0.1988394955	        0.0000558755	       -0.3004071329	       -0.0000000000	       -0.0000000000	       -0.0000000000	      -20.2379274729	      582.5554755696	       78.8437613245	        0.2029003516	       -0.0000795827	        0.4543649445	      -87.0772027436	      -15.4229105180	       75.9727250111	        0.0004029316	        0.0036280721	        0.0004221190	        0.2076431971	        0.0000770316	        1.3583900146	        0.0006379737	        0.0001024282	        0.0000956550	
        1.5870000000	       -0.0000000000	        0.0000000000	       -0.0000000000	        0.1988394955	        0.0000558755	       -0.3004071329	       -0.0000000000	       -0.0000000000	       -0.0000000000	      -19.8642715779	      580.6983079750	       79.1938230694	        0.2029003516	       -0.0000795827	        0.4543649445	      -86.9194614889	      -15.4201886170	       75.7099116605	        0.0006312458	        0.0065788929	        0.0009131142	        0.2076431971	        0.0000770316	        1.3583900146	        0.0012566561	        0.0001683387	        0.0001740363	
        1.5880000000	       -0.0000000000	        0.0000000000	       -0.0000000000	        0.1988394955	        0.0000558755	       -0.3004071329	       -0.0000000000	       -0.0000000000	       -0.0000000000	      -19.4827580826	      578.7869735769	       79.5315849748	        0.2029003516	       -0.0000795827	        0.4543649445	      -86.7533313049	      -15.4151507199	       75.4388150425	        0.0009093608	        0.0103192324	        0.0015522472	        0.2076431971	        0.0000770316	        1.3583900146	        0.0020522044	        0.0002499087	        0.0002734552	
        1.5890000000	       -0.0000000000	        0.0000000000	       -0.0000000000	        0.1988394955	        0.0000558755	       -0.3004071329	       -0.0000000000	       -0.0000000000	       -0.0000000000	      -19.0953983666	      576.8212132089	       79.8560227418	        0.2029003516	       -0.0000795827	        0.4543649445	      -86.5778398923	      -15.4076374290	       75.1590451759	        0.0012351712	        0.0148774719	        0.0023506306	        0.2076431971	        0.0000770316	        1.3583900146	        0.0030348875	        0.0003470194	        0.0003946909	
        1.5900000000	       -0.0000000000	        0.0000000000	       -0.0000000000	        0.1988394955	        0.0000558755	       -0.3004071329	       -0.0000000000	       -0.0000000000	       -0.0000000000	      -18.7044835032	      574.8027499918	       80.1659637827	        0.2029003516	       -0.0000795827	        0.4543649445	      -86.3920637431	      -15.3975125050	       74.8703067199	        0.0016011699	        0.0202198965	        0.0033099316	        0.2076431971	        0.0000770316	        1.3583900146	        0.0042025546	        0.0004580603	        0.0005368766	
        1.5910000000	       -0.0000000000	        0.0000000000	       -0.0000000000	        0.1988394955	        0.0000558755	       -0.3004071329	       -0.0000000000	       -0.0000000000	       -0.0000000000	      -18.3119374391	      572.7339853416	       80.4605702045	        0.2029003516	       -0.0000795827	        0.4543649445	      -86.1953086746	      -15.3847196768	       74.5725717084	        0.0019925846	        0.0262244099	        0.0044177460	        0.2076431971	        0.0000770316	        1.3583900146	        0.0055349533	        0.0005793723	        0.0006968001	
        1.5920000000	       -0.0000000000	        0.0000000000	       -0.0000000000	        0.1988394955	        0.0000558755	       -0.3004071329	       -0.0000000000	       -0.0000000000	       -0.0000000000	      -17.9189810035	      570.6155881700	       80.7393314275	        0.2029003516	       -0.0000795827	        0.4543649445	      -85.9871912416	      -15.3693004052	       74.2660216205	        0.0023853011	        0.0326499647	        0.0056420815	        0.2076431971	        0.0000770316	        1.3583900146	        0.0069870296	        0.0007046149	        0.0008680907	
        1.5930000000	       -0.0000000000	        0.0000000000	       -0.0000000000	        0.1988394955	        0.0000558755	       -0.3004071329	       -0.0000000000	       -0.0000000000	       -0.0000000000	      -17.5268995022	      568.4454033421	       81.0018939102	        0.2029003516	       -0.0000795827	        0.4543649445	      -85.7676563597	      -15.3513863472	       73.9508231465	        0.0027436688	        0.0391025054	        0.0069250383	        0.2076431971	        0.0000770316	        1.3583900146	        0.0084813463	        0.0008240831	        0.0010403114	
        1.5940000000	       -0.0000000000	        0.0000000000	       -0.0000000000	        0.1988394955	        0.0000558755	       -0.3004071329	       -0.0000000000	       -0.0000000000	       -0.0000000000	      -17.1379111350	      566.2211145476	       81.2484924483	        0.2029003516	       -0.0000795827	        0.4543649445	      -85.5369791127	      -15.3311527133	       73.6271461559	        0.0030183296	        0.0449989174	        0.0081758900	        0.2076431971	        0.0000770316	        1.3583900146	        0.0098999022	        0.0009240100	        0.0011979982	
        1.5950000000	       -0.0000000000	        0.0000000000	       -0.0000000000	        0.1988394955	        0.0000558755	       -0.3004071329	       -0.0000000000	       -0.0000000000	       -0.0000000000	      -16.7546163070	      563.9421846368	       81.4804988094	        0.2029003516	       -0.0000795827	        0.4543649445	      -85.2957834187	      -15.3086714216	       73.2953591560	        0.0031442874	        0.0495313660	        0.0092639204	        0.2076431971	        0.0000770316	        1.3583900146	        0.0110758247	        0.0009859155	        0.0013197075	
        1.5960000000	       -0.0000000000	        0.0000000000	       -0.0000000000	        0.1988394955	        0.0000558755	       -0.3004071329	       -0.0000000000	       -0.0000000000	       -0.0000000000	      -16.3784345827	      561.6089023582	       81.7001608131	        0.2029003516	       -0.0000795827	        0.4543649445	      -85.0448064839	      -15.2838651216	       72.9560035126	        0.0030395059	        0.0516355057	        0.0100115613	        0.2076431971	        0.0000770316	        1.3583900146	        0.0117856416	        0.0009860812	        0.0013771658	
        1.5970000000	       -0.0000000000	        0.0000000000	       -0.0000000000	        0.1988394955	        0.0000558755	       -0.3004071329	       -0.0000000000	       -0.0000000000	       -0.0000000000	      -16.0091376437	      559.2216128176	       81.9095659312	        0.2029003516	       -0.0000795827	        0.4543649445	      -84.7845170209	      -15.2566628375	       72.6096471172	        0.0026044171	        0.0499673263	        0.0101886096	        0.2076431971	        0.0000770316	        1.3583900146	        0.0117431217	        0.0008952610	        0.0013346468	
        1.5980000000	       -0.0000000000	        0.0000000000	        0.0000000000	        0.1988394955	        0.0000558755	       -0.3004071329	       -0.0000000000	       -0.0000000000	       -0.0000000000	      -15.6456271320	      556.7800042871	       82.1096515098	        0.2029003516	       -0.0000795827	        0.4543649445	      -84.5151415033	      -15.2271224351	       72.2568346081	        0.0017228160	        0.0428948633	        0.0095085651	        0.2076431971	        0.0000770316	        1.3583900146	        0.0105959945	        0.0006787642	        0.0011487425	
        1.5990000000	        0.0000000000	        0.0000000000	        0.0000000000	        0.1988394955	        0.0000558755	       -0.3004071329	        0.0000000000	        0.0000000000	        0.0000000000	      -15.2861896724	      554.2818138051	       82.2999790226	        0.2029003516	       -0.0000795827	        0.4543649445	      -84.2369373457	      -15.1953650651	       71.8979513264	        0.0002647152	        0.0285125763	        0.0076284358	        0.2076431971	        0.0000770316	        1.3583900146	        0.0079272162	        0.0002970824	        0.0007687348	
        1.6000000000	        0.0000000000	        0.0000000000	        0.0000000000	        0.1988394955	        0.0000558755	       -0.3004071329	        0.0000000000	        0.0000000000	        0.0000000000	      -14.9283008534	      551.7231348907	       82.4794906215	        0.2029003516	       -0.0000795827	        0.4543649445	      -83.9502961783	      -15.1614083088	       71.5329834146	       -0.0019081762	        0.0046878004	        0.0041536659	        0.2076431971	        0.0000770316	        1.3583900146	        0.0032628158	       -0.0002927439	        0.0001378182	
        1.6010000000	        0.0000000000	        0.0000000000	        0.0000000000	        0.1988394955	        0.0000558755	       -0.3004071329	        0.0000000000	        0.0000000000	        0.0000000000	      -14.5691773954	      549.1007219394	       82.6477107064	        0.2029003516	       -0.0000795827	        0.4543649445	      -83.6556895340	      -15.1250726299	       71.1614792365	       -0.0049336124	        0.0000000000	       -0.0013498393	        0.2076431971	        0.0000770316	        1.3583900146	       -0.0039112858	       -0.0011347912	       -0.0008045361	
        1.6020000000	        0.0000000000	        0.0000000000	        0.0000000000	        0.1988394955	        0.0000558755	       -0.3004071329	        0.0000000000	        0.0000000000	        0.0000000000	      -14.2066754561	      546.4137452719	       82.8053712539	        0.2029003516	       -0.0000795827	        0.4543649445	      -83.3533427373	      -15.0860351134	       70.7827884029	       -0.0089358359	        0.0000000000	       -0.0093343452	        0.2076431971	        0.0000770316	        1.3583900146	       -0.0141207899	       -0.0022707115	       -0.0021187532	
        1.6030000000	        0.0000000000	        0.0000000000	        0.0000000000	        0.1988394955	        0.0000558755	       -0.3004071329	        0.0000000000	        0.0000000000	        0.0000000000	      -13.8397797390	      543.6637303976	       82.9540749072	        0.2029003516	       -0.0000795827	        0.4543649445	      -83.0428439378	      -15.0439779779	       70.3963258689	       -0.0140077059	        0.0000000000	       -0.0202371240	        0.2076431971	        0.0000770316	        1.3583900146	       -0.0278599741	       -0.0037347381	       -0.0038595254	
        1.6040000000	        0.0000000000	        0.0000000000	        0.0000000000	        0.1988394955	        0.0000558755	       -0.3004071329	        0.0000000000	        0.0000000000	        0.0000000000	      -13.4686605300	      540.8540960564	       83.0957589846	        0.2029003516	       -0.0000795827	        0.4543649445	      -82.7232791718	      -14.9987333175	       70.0017010529	       -0.0201872645	        0.0000000000	       -0.0344329743	        0.2076431971	        0.0000770316	        1.3583900146	       -0.0455311689	       -0.0055470119	       -0.0060680470	
